<?xml version="1.0" encoding="UTF-8" standalone="no"?>
<!DOCTYPE svg PUBLIC "-//W3C//DTD SVG 1.1//EN" "http://www.w3.org/Graphics/SVG/1.1/DTD/svg11.dtd">
<svg width="100%" height="100%" viewBox="0 0 512 512" version="1.1" xmlns="http://www.w3.org/2000/svg" xmlns:xlink="http://www.w3.org/1999/xlink" xml:space="preserve" xmlns:serif="http://www.serif.com/" style="fill-rule:evenodd;clip-rule:evenodd;stroke-linejoin:round;stroke-miterlimit:2;">
    <g id="path-3" transform="matrix(14.2762,0,0,14.2762,-3.38628,0.967148)">
        <path d="M34.597,18C34.597,9.009 27.297,1.709 18.306,1.709C9.314,1.709 2.014,9.009 2.014,18C2.014,26.991 9.314,34.291 18.306,34.291C27.297,34.291 34.597,26.991 34.597,18Z" style="fill:rgb(28,205,216);fill-opacity:0.97;"/>
    </g>
    <g transform="matrix(9.15049,0,0,9.15049,-5285.99,-208.759)">
        <path d="M611.498,53.385C612.599,53.197 613.438,52.237 613.438,51.083C613.438,49.924 612.592,48.962 611.485,48.779C611.388,48.758 611.28,48.747 611.163,48.747L603.619,48.747L603.619,43.493C603.619,41.251 605.32,39.701 607.816,39.701L612.017,39.701C612.058,39.703 612.1,39.704 612.141,39.704C613.444,39.704 614.501,38.646 614.501,37.343C614.501,36.182 613.661,35.216 612.556,35.02C612.451,34.997 612.326,34.983 612.189,34.983L607.438,34.983C601.668,34.983 597.759,38.581 597.759,43.405L597.759,65.843C597.759,66.209 597.898,66.487 598.121,66.68C598.321,66.853 598.605,66.962 598.961,66.962L602.417,66.962C602.773,66.962 603.056,66.853 603.257,66.68C603.48,66.487 603.619,66.209 603.619,65.843L603.619,53.42L611.163,53.42C611.284,53.42 611.397,53.408 611.499,53.385L611.498,53.385Z" style="fill:white;fill-rule:nonzero;"/>
    </g>
    <g transform="matrix(9.18068,0,0,9.18068,-0.998043,-0.998043)">
        <path d="M28,0.122C12.614,0.122 0.122,12.614 0.122,28C0.122,43.386 12.614,55.878 28,55.878C43.386,55.878 55.878,43.386 55.878,28C55.878,12.614 43.386,0.122 28,0.122ZM28,3.039C41.776,3.039 52.961,14.224 52.961,28C52.961,41.776 41.776,52.961 28,52.961C14.224,52.961 3.039,41.776 3.039,28C3.039,14.224 14.224,3.039 28,3.039Z" style="fill:white;"/>
    </g>
</svg>
