<?xml version="1.0" encoding="UTF-8" standalone="no"?>
<!DOCTYPE svg PUBLIC "-//W3C//DTD SVG 1.1//EN" "http://www.w3.org/Graphics/SVG/1.1/DTD/svg11.dtd">
<svg width="100%" height="100%" viewBox="0 0 325 175" version="1.1" xmlns="http://www.w3.org/2000/svg" xmlns:xlink="http://www.w3.org/1999/xlink" xml:space="preserve" xmlns:serif="http://www.serif.com/" style="fill-rule:evenodd;clip-rule:evenodd;stroke-linejoin:round;stroke-miterlimit:2;">
    <g transform="matrix(0.886156,0,0,1.11824,-5847.24,-5421.82)">
        <path d="M6963.47,4848.53L6600.14,4848.53L6600.14,4967.71C6600.14,4978.02 6609.65,4986.78 6622.51,4988.32C6660.4,4992.92 6737.39,5001.58 6781.81,5001.58C6826.22,5001.58 6903.22,4992.92 6941.1,4988.3C6953.95,4986.76 6963.45,4978.01 6963.45,4967.71C6963.47,4930.65 6963.47,4848.53 6963.47,4848.53Z" style="fill:rgb(59,66,163);"/>
    </g>
    <path d="M221.547,103.258C216.909,103.258 213.104,102.01 210.13,99.516C207.157,97.021 205.671,93.676 205.671,89.48L205.671,62.774L213.817,62.774L213.817,88.856C213.817,90.935 214.442,92.579 215.69,93.789C216.939,94.999 218.891,95.603 221.547,95.603C224.204,95.603 226.156,94.999 227.405,93.789C228.653,92.579 229.278,90.935 229.278,88.856L229.278,62.774L237.484,62.774L237.484,89.48C237.484,93.676 235.997,97.021 233.024,99.516C230.051,102.01 226.225,103.258 221.547,103.258ZM267.929,103.258C261.666,103.258 256.492,101.273 252.409,97.304C248.326,93.335 246.284,88.44 246.284,82.619C246.284,76.76 248.326,71.856 252.409,67.906C256.492,63.956 261.666,61.981 267.929,61.981C271.695,61.981 275.174,62.822 278.365,64.504C281.556,66.186 284.044,68.463 285.828,71.336L278.752,75.248C277.721,73.472 276.254,72.083 274.351,71.081C272.448,70.079 270.308,69.578 267.929,69.578C263.886,69.578 260.625,70.788 258.147,73.207C255.67,75.626 254.431,78.764 254.431,82.619C254.431,86.437 255.67,89.555 258.147,91.975C260.625,94.394 263.886,95.603 267.929,95.603C270.308,95.603 272.458,95.103 274.381,94.101C276.304,93.099 277.761,91.729 278.752,89.99L285.828,93.902C284.044,96.775 281.566,99.053 278.395,100.735C275.223,102.417 271.735,103.258 267.929,103.258ZM144.304,102.464L141.807,95.32L125.216,95.32L122.719,102.464L113.859,102.464L128.427,62.774L138.596,62.774L153.224,102.464L144.304,102.464ZM58.57,62.774L58.57,70.259L58.557,70.259L58.557,102.464L50.351,102.464L50.351,70.259L39.172,70.259L39.172,62.774L58.57,62.774ZM87.227,62.774L94.355,62.774C98.2,62.774 101.47,64.06 104.166,66.63C106.862,69.2 108.21,72.3 108.21,75.929C108.21,78.386 107.476,80.663 106.009,82.761C104.543,84.859 102.6,86.437 100.182,87.495L109.399,102.464L100.539,102.464L92.154,88.686L85.911,88.686L85.911,102.464L77.705,102.464L77.705,62.774L85.947,62.774L85.947,70.089L85.911,70.089L85.911,81.825L94.355,81.825C95.901,81.825 97.229,81.249 98.339,80.096C99.449,78.943 100.004,77.554 100.004,75.929C100.004,74.303 99.449,72.924 98.339,71.79C97.229,70.656 95.901,70.089 94.355,70.089L90.861,70.089L87.227,62.774ZM170.05,62.774L177.128,62.774C182.837,62.774 187.604,64.683 191.429,68.501C195.255,72.319 197.167,77.025 197.167,82.619C197.167,88.214 195.255,92.92 191.429,96.737C187.604,100.555 182.837,102.464 177.128,102.464L160.597,102.464L160.597,62.774L168.769,62.774L168.769,73.386L168.803,73.374L168.803,94.98L177.128,94.98C180.736,94.98 183.669,93.836 185.929,91.549C188.188,89.262 189.318,86.286 189.318,82.619C189.318,78.953 188.188,75.976 185.929,73.689C183.669,71.402 180.736,70.259 177.128,70.259L173.768,70.259L170.05,62.774ZM127.833,88.006L139.25,88.006L133.541,71.79L127.833,88.006ZM59.851,62.774L69.796,62.774L69.796,70.259L63.569,70.259L59.851,62.774Z" style="fill:white;fill-rule:nonzero;"/>
</svg>
