<?xml version="1.0" encoding="UTF-8" standalone="no"?><!DOCTYPE svg PUBLIC "-//W3C//DTD SVG 1.1//EN" "http://www.w3.org/Graphics/SVG/1.1/DTD/svg11.dtd"><svg width="100%" height="100%" viewBox="0 0 182 34" version="1.1" xmlns="http://www.w3.org/2000/svg" xmlns:xlink="http://www.w3.org/1999/xlink" xml:space="preserve" xmlns:serif="http://www.serif.com/" style="fill-rule:evenodd;clip-rule:evenodd;stroke-linejoin:round;stroke-miterlimit:2;"><path d="M4.843,29.484c-4.373,-4.777 -4.359,-21.168 -0.004,-25.907c4.356,-4.738 21.925,-4.782 26.297,-0.006c4.373,4.777 4.351,21.167 -0.005,25.905c-4.355,4.738 -21.916,4.784 -26.288,0.008Z" style="fill:#1f69ec;"/><path d="M18.535,6.098c2.097,0.016 4.186,0.671 5.906,1.872c1.06,0.686 1.383,2.044 0.419,3.085c-0.174,0.175 -0.348,0.35 -0.522,0.525c-0.352,0.354 -0.866,0.867 -0.866,0.867c-0.717,0.645 -1.704,0.71 -2.552,0.155c-2.159,-1.415 -5.172,-0.668 -6.516,1.747c-1.388,2.492 -0.041,5.574 2.463,6.509c1.371,0.512 2.914,0.347 4.196,-0.497c0.349,-0.23 1.512,-0.63 2.402,0.25c0.421,0.417 0.847,0.838 1.233,1.223c0.466,0.464 0.669,0.851 0.713,1.378c0.088,1.051 -0.512,1.74 -1.907,2.458c-3.734,2.05 -8.413,1.72 -11.94,-1.341c-3.551,-3.02 -4.594,-8.479 -2.311,-12.661c1.859,-3.405 5.264,-5.52 9.027,-5.568c0.085,-0.001 0.17,-0.002 0.255,-0.002Z" style="fill:#fff;"/><path d="M56.031,20.195c0.196,0.196 0.294,0.47 0.268,0.745c-0.027,0.276 -0.176,0.525 -0.406,0.68c-0.987,0.669 -2.177,1.061 -3.457,1.061c-3.397,0 -6.154,-2.758 -6.154,-6.154c0,-3.396 2.757,-6.154 6.154,-6.154c1.282,0 2.473,0.393 3.459,1.065c0.229,0.155 0.378,0.404 0.404,0.679c0.027,0.275 -0.071,0.547 -0.267,0.742c-0.216,0.22 -0.453,0.457 -0.661,0.664c-0.304,0.304 -0.777,0.358 -1.142,0.132c-0.52,-0.326 -1.135,-0.515 -1.793,-0.515c-1.869,0 -3.387,1.517 -3.387,3.386c0,1.869 1.518,3.386 3.387,3.386c0.657,0 1.271,-0.187 1.791,-0.512c0.365,-0.226 0.837,-0.17 1.14,0.133c0.209,0.207 0.446,0.444 0.664,0.662Z" style="fill:#6f6f6f;"/><path d="M65.475,10.373c3.396,0 6.154,2.758 6.154,6.154c0,3.396 -2.758,6.154 -6.154,6.154c-3.397,0 -6.154,-2.758 -6.154,-6.154c0,-3.396 2.757,-6.154 6.154,-6.154Zm0,2.767c1.869,0 3.386,1.517 3.386,3.386c0,1.869 -1.517,3.386 -3.386,3.386c-1.869,0 -3.386,-1.517 -3.386,-3.386c0,-1.869 1.517,-3.386 3.386,-3.386Z" style="fill:#6f6f6f;"/><path d="M143.325,20.195c0.195,0.196 0.294,0.47 0.267,0.745c-0.027,0.276 -0.176,0.525 -0.406,0.68c-0.986,0.669 -2.176,1.061 -3.457,1.061c-3.397,0 -6.154,-2.758 -6.154,-6.154c0,-3.396 2.757,-6.154 6.154,-6.154c1.282,0 2.473,0.393 3.459,1.065c0.229,0.155 0.378,0.404 0.404,0.679c0.027,0.275 -0.071,0.547 -0.267,0.742c-0.216,0.22 -0.453,0.457 -0.661,0.664c-0.304,0.304 -0.777,0.358 -1.142,0.132c-0.52,-0.326 -1.135,-0.515 -1.793,-0.515c-1.869,0 -3.387,1.517 -3.387,3.386c0,1.869 1.518,3.386 3.387,3.386c0.657,0 1.271,-0.187 1.791,-0.512c0.365,-0.226 0.837,-0.17 1.141,0.133c0.208,0.207 0.445,0.444 0.664,0.662Z" style="fill:#9d9d9d;"/><path d="M152.768,10.373c3.396,0 6.154,2.758 6.154,6.154c0,3.396 -2.758,6.154 -6.154,6.154c-3.397,0 -6.154,-2.758 -6.154,-6.154c0,-3.396 2.757,-6.154 6.154,-6.154Zm0,2.767c1.869,0 3.386,1.517 3.386,3.386c0,1.869 -1.517,3.386 -3.386,3.386c-1.869,0 -3.386,-1.517 -3.386,-3.386c0,-1.869 1.517,-3.386 3.386,-3.386Z" style="fill:#9d9d9d;"/><path d="M113.845,16.53l0,-5.214c0,-0.248 0.099,-0.486 0.274,-0.662c0.176,-0.175 0.414,-0.274 0.662,-0.274c0.289,0 0.608,0 0.897,0c0.248,0 0.486,0.099 0.662,0.274c0.175,0.176 0.274,0.414 0.274,0.662l0,10.429c0,0.517 -0.419,0.936 -0.936,0.936c-0.289,0 -0.608,0 -0.897,0c-0.517,0 -0.936,-0.419 -0.936,-0.936l0,-0.079c-0.971,0.641 -2.135,1.015 -3.385,1.015c-3.395,0 -6.152,-2.756 -6.154,-6.151l0,0l0,-5.214c0,-0.248 0.099,-0.486 0.274,-0.662c0.176,-0.175 0.414,-0.274 0.662,-0.274c0.289,0 0.608,0 0.897,0c0.248,0 0.486,0.099 0.662,0.274c0.175,0.176 0.274,0.414 0.274,0.662l0,5.214l-0.001,0c0.002,1.867 1.518,3.382 3.386,3.382c1.841,0 3.342,-1.473 3.385,-3.304l0,-0.078Z" style="fill:#6f6f6f;"/><path d="M119.3,11.309c0,-0.517 0.419,-0.936 0.936,-0.936c0.289,0 0.608,0 0.897,0c0.517,0 0.936,0.419 0.936,0.936c0,0.05 0,0.079 0,0.079c0.971,-0.641 2.135,-1.015 3.385,-1.015c1.298,0 2.502,0.403 3.495,1.089c0.229,0.157 0.377,0.408 0.403,0.685c0.025,0.276 -0.074,0.55 -0.27,0.747c-0.212,0.215 -0.443,0.445 -0.647,0.649c-0.309,0.309 -0.791,0.363 -1.161,0.129c-0.525,-0.337 -1.15,-0.532 -1.82,-0.532c-1.841,0 -3.341,1.473 -3.385,3.304l0,0.165c0.022,0.902 0,3.303 0,3.303l0,1.833c0,0.517 -0.419,0.936 -0.936,0.936l-0.897,0c-0.517,0 -0.936,-0.419 -0.936,-0.936c0,-2.289 0,-8.147 0,-10.436Z" style="fill:#6f6f6f;"/><path d="M86.623,16.528l0,0c0,3.396 -2.757,6.153 -6.154,6.153c-3.396,0 -6.153,-2.758 -6.153,-6.154c0,-3.396 2.757,-6.154 6.153,-6.154c1.251,0 2.414,0.374 3.386,1.015l0,-2.383c0,-0.517 0.419,-0.936 0.936,-0.936c0.289,0 0.607,0 0.896,0c0.517,0 0.936,0.419 0.936,0.936c0,2.201 0,7.523 0,7.523Zm-2.768,-0.084c-0.044,-1.831 -1.544,-3.304 -3.386,-3.304c-1.868,0 -3.386,1.517 -3.386,3.386c0,1.869 1.518,3.386 3.386,3.386c1.869,0 3.386,-1.516 3.387,-3.384l-0.001,0l0,-0.084Z" style="fill:#6f6f6f;"/><path d="M101.617,16.975c0,0.249 -0.098,0.487 -0.274,0.662c-0.175,0.176 -0.413,0.274 -0.662,0.274c-2.348,0 -8.303,0 -8.303,0c0.529,1.181 1.713,2.001 3.087,2.001c0.656,0 1.269,-0.187 1.788,-0.51c0.369,-0.227 0.845,-0.171 1.151,0.135c0.205,0.203 0.437,0.435 0.651,0.649c0.198,0.198 0.297,0.474 0.27,0.753c-0.027,0.279 -0.178,0.531 -0.41,0.687c-0.986,0.665 -2.173,1.055 -3.45,1.055c-3.396,0 -6.154,-2.758 -6.154,-6.154c0,-3.396 2.758,-6.154 6.154,-6.154c2.92,0 5.368,2.039 5.993,4.77c0.1,0.418 0.154,0.852 0.159,1.298l0,0.534Zm-3.064,-1.832c-0.526,-1.18 -1.712,-2.003 -3.088,-2.003c-1.376,0 -2.561,0.823 -3.088,2.003l6.176,0Z" style="fill:#6f6f6f;"/><path d="M170.33,11.212c0.911,-0.533 1.97,-0.839 3.101,-0.839c3.361,0 6.097,2.702 6.151,6.051l0.002,0l0,5.323c0,0.514 -0.416,0.93 -0.93,0.93c-0.293,0 -0.616,0 -0.908,0c-0.514,0 -0.93,-0.416 -0.93,-0.93l0,-5.222l0,0l0,0c0,-1.869 -1.517,-3.386 -3.385,-3.386c-0.63,0 -1.22,0.173 -1.725,0.473l0,8.135c0,0.514 -0.416,0.93 -0.93,0.93c-0.293,0 -0.615,0 -0.908,0c-0.514,0 -0.93,-0.416 -0.93,-0.93c0,-2.314 0,-8.145 0,-8.145c-0.502,-0.294 -1.085,-0.463 -1.708,-0.463c-1.869,0 -3.386,1.517 -3.386,3.386l0,0l-0.001,0l0,5.222c0,0.514 -0.417,0.93 -0.931,0.93l-0.907,0c-0.514,0 -0.93,-0.416 -0.93,-0.93c0,-2.295 0,-8.205 0,-10.471c0,-0.24 0.095,-0.469 0.264,-0.638c0.169,-0.17 0.399,-0.265 0.638,-0.265l0.963,0c0.239,0 0.469,0.095 0.638,0.265c0.17,0.169 0.265,0.398 0.265,0.638c0,0.07 0,0.114 0,0.114c0.971,-0.643 2.136,-1.017 3.387,-1.017c1.13,0 2.189,0.306 3.1,0.839Z" style="fill:#9d9d9d;"/><circle cx="129.111" cy="21.294" r="1.383" style="fill:#9d9d9d;"/></svg>