<?xml version="1.0" encoding="UTF-8" standalone="no"?>
<!DOCTYPE svg PUBLIC "-//W3C//DTD SVG 1.1//EN" "http://www.w3.org/Graphics/SVG/1.1/DTD/svg11.dtd">
<svg width="100%" height="100%" viewBox="0 0 56 56" version="1.1" xmlns="http://www.w3.org/2000/svg" xmlns:xlink="http://www.w3.org/1999/xlink" xml:space="preserve" xmlns:serif="http://www.serif.com/" style="fill-rule:evenodd;clip-rule:evenodd;stroke-linejoin:round;stroke-miterlimit:2;">
    <g transform="matrix(0.558062,0,0,0.558062,3.03899,3.01444)">
        <circle cx="44.728" cy="44.772" r="44.728" style="fill:rgb(255,105,68);"/>
    </g>
    <path d="M28,0.122C12.614,0.122 0.122,12.614 0.122,28C0.122,43.386 12.614,55.878 28,55.878C43.386,55.878 55.878,43.386 55.878,28C55.878,12.614 43.386,0.122 28,0.122ZM28,3.039C41.776,3.039 52.961,14.224 52.961,28C52.961,41.776 41.776,52.961 28,52.961C14.224,52.961 3.039,41.776 3.039,28C3.039,14.224 14.224,3.039 28,3.039ZM39.642,16.663C38.579,18.718 36.176,19.689 33.985,18.948C33.108,18.595 32.344,18.403 31.717,18.28C30.623,18.066 29.769,18.032 28.672,18.032C23.171,18.032 19.378,22.499 19.378,28C19.378,33.501 23.172,38.043 28.672,37.968C33.052,37.908 35.012,35.226 35.85,31.416L29.264,31.416C29.107,31.416 28.957,31.354 28.846,31.242C28.735,31.131 28.672,30.981 28.672,30.824L28.672,30.823C28.672,29.45 29.218,28.133 30.189,27.162C31.159,26.191 32.477,25.646 33.849,25.646L40.686,25.646C41.427,25.646 42.06,26.179 42.185,26.909C42.319,27.752 42.392,28.616 42.392,29.497C42.392,35.516 38.118,43.738 28.672,43.738C19.987,43.738 13.608,36.686 13.608,28C13.608,19.314 19.987,12.262 28.672,12.262C30.814,12.26 32.777,12.45 34.717,12.938C36.276,13.331 37.761,14.123 39.254,15.139C39.75,15.476 39.916,16.13 39.64,16.662C39.642,16.663 39.642,16.663 39.642,16.663Z" style="fill:white;"/>
    <g transform="matrix(0.53669,0,0,0.53669,3.99491,3.97105)">
        <path d="M71.268,51.14C70.99,53.141 70.48,55.201 69.725,57.218L57.08,57.218C58.125,55.495 58.834,53.47 59.353,51.14L71.268,51.14Z" style="fill-opacity:0.18;"/>
    </g>
</svg>
