<?xml version="1.0" encoding="UTF-8" standalone="no"?>
<!DOCTYPE svg PUBLIC "-//W3C//DTD SVG 1.1//EN" "http://www.w3.org/Graphics/SVG/1.1/DTD/svg11.dtd">
<svg width="100%" height="100%" viewBox="0 0 170 27" version="1.1" xmlns="http://www.w3.org/2000/svg" xmlns:xlink="http://www.w3.org/1999/xlink" xml:space="preserve" xmlns:serif="http://www.serif.com/" style="fill-rule:evenodd;clip-rule:evenodd;stroke-linejoin:round;stroke-miterlimit:2;">
    <path d="M85.099,13.565L85.099,6.899C85.099,6.586 85.224,6.286 85.445,6.065C85.666,5.844 85.966,5.72 86.278,5.72C86.643,5.72 87.044,5.72 87.408,5.72C87.721,5.72 88.02,5.844 88.241,6.065C88.463,6.286 88.587,6.586 88.587,6.899L88.587,20.035C88.587,20.686 88.059,21.213 87.408,21.213C87.044,21.213 86.643,21.213 86.278,21.213C85.627,21.213 85.099,20.686 85.099,20.035L85.099,19.935C83.876,20.743 82.41,21.213 80.836,21.213C76.559,21.213 73.087,17.742 73.085,13.466L73.085,6.899C73.085,6.586 73.209,6.286 73.43,6.065C73.651,5.844 73.951,5.72 74.264,5.72C74.628,5.72 75.029,5.72 75.393,5.72C75.706,5.72 76.006,5.844 76.227,6.065C76.448,6.286 76.572,6.586 76.572,6.899L76.572,13.466L76.571,13.466C76.573,15.818 78.483,17.726 80.836,17.726C83.155,17.726 85.044,15.871 85.099,13.565ZM12.28,18.083C12.527,18.329 12.651,18.674 12.617,19.021C12.583,19.368 12.396,19.683 12.106,19.877C10.863,20.719 9.364,21.213 7.751,21.213C3.473,21.213 0,17.74 0,13.462C0,9.185 3.473,5.711 7.751,5.711C9.366,5.711 10.867,6.206 12.109,7.053C12.397,7.247 12.584,7.561 12.617,7.907C12.651,8.254 12.527,8.597 12.281,8.843C12.009,9.119 11.71,9.417 11.449,9.679C11.066,10.061 10.47,10.13 10.01,9.845C9.355,9.434 8.581,9.197 7.751,9.197C5.397,9.197 3.486,11.108 3.486,13.461C3.486,15.815 5.397,17.726 7.751,17.726C8.579,17.726 9.353,17.49 10.007,17.081C10.467,16.797 11.062,16.866 11.444,17.249C11.707,17.509 12.005,17.808 12.28,18.083ZM69.698,14.027C69.698,14.34 69.574,14.64 69.353,14.861C69.132,15.082 68.832,15.206 68.519,15.206C65.561,15.206 58.06,15.206 58.06,15.206C58.726,16.693 60.218,17.726 61.949,17.726C62.775,17.726 63.547,17.491 64.201,17.083C64.665,16.797 65.265,16.868 65.651,17.253C65.909,17.509 66.201,17.801 66.471,18.071C66.72,18.321 66.845,18.669 66.811,19.02C66.776,19.371 66.587,19.688 66.294,19.884C65.053,20.722 63.558,21.213 61.949,21.213C57.671,21.213 54.198,17.74 54.198,13.462C54.198,9.185 57.671,5.711 61.949,5.711C65.627,5.711 68.71,8.279 69.497,11.719C69.624,12.245 69.691,12.792 69.698,13.354L69.698,14.027ZM24.174,5.711C28.452,5.711 31.926,9.185 31.926,13.462C31.926,17.74 28.452,21.213 24.174,21.213C19.897,21.213 16.423,17.74 16.423,13.462C16.423,9.185 19.897,5.711 24.174,5.711ZM50.812,13.463L50.812,13.463C50.812,17.741 47.339,21.213 43.061,21.213C38.783,21.213 35.31,17.74 35.31,13.462C35.31,9.185 38.783,5.711 43.061,5.711C44.636,5.711 46.101,6.182 47.325,6.99L47.325,2.615C47.325,1.964 47.853,1.436 48.504,1.436C48.868,1.436 49.269,1.436 49.633,1.436C50.284,1.436 50.812,1.964 50.812,2.615C50.812,5.388 50.812,13.463 50.812,13.463ZM91.97,6.89C91.97,6.239 92.498,5.711 93.149,5.711C93.514,5.711 93.915,5.711 94.279,5.711C94.93,5.711 95.458,6.239 95.458,6.89C95.458,6.952 95.458,6.99 95.458,6.99C96.681,6.182 98.147,5.711 99.722,5.711C101.356,5.711 102.873,6.218 104.123,7.083C104.412,7.281 104.598,7.597 104.631,7.945C104.663,8.294 104.538,8.638 104.291,8.886C104.024,9.157 103.733,9.447 103.476,9.704C103.087,10.093 102.48,10.161 102.014,9.867C101.352,9.442 100.565,9.197 99.722,9.197C97.402,9.197 95.513,11.051 95.458,13.357L95.458,13.566C95.485,14.702 95.458,17.726 95.458,17.726L95.458,20.035C95.458,20.686 94.93,21.213 94.279,21.213L93.149,21.213C92.498,21.213 91.97,20.686 91.97,20.035C91.97,17.152 91.97,9.773 91.97,6.89ZM24.174,9.197C26.528,9.197 28.439,11.108 28.439,13.461C28.439,15.815 26.528,17.726 24.174,17.726C21.821,17.726 19.91,15.815 19.91,13.461C19.91,11.108 21.821,9.197 24.174,9.197ZM47.325,13.357C47.269,11.051 45.38,9.197 43.061,9.197C40.707,9.197 38.796,11.108 38.796,13.461C38.796,15.815 40.707,17.726 43.061,17.726C45.414,17.726 47.325,15.816 47.326,13.463L47.325,13.463L47.325,13.357ZM65.838,11.719C65.175,10.233 63.682,9.197 61.949,9.197C60.216,9.197 58.723,10.233 58.059,11.719L65.838,11.719Z" style="fill:rgb(80,80,80);"/>
    <path d="M170,19.251L169.978,19.841L169.872,20.659L169.771,21.126L169.613,21.675L169.415,22.207L168.89,23.247L168.103,24.328L167.105,25.29L165.839,26.12L164.483,26.673L163.417,26.913L162.546,26.994L161.699,26.981L160.862,26.876L160.011,26.671L159.198,26.375L158.44,25.998C158.209,25.867 157.985,25.725 157.769,25.571C157.485,25.372 157.305,25.057 157.275,24.712C157.245,24.367 157.369,24.026 157.615,23.781C157.879,23.51 158.169,23.219 158.427,22.962C158.821,22.568 159.438,22.504 159.905,22.808C160.577,23.255 161.384,23.514 162.251,23.514L162.905,23.464L163.573,23.305L164.195,23.045L164.764,22.694L165.268,22.261L165.7,21.756L166.05,21.186L166.292,20.614L166.454,19.97C165.243,20.754 163.8,21.21 162.251,21.21C157.974,21.21 154.502,17.737 154.502,13.461C154.502,9.184 157.974,5.711 162.251,5.711C163.825,5.711 165.29,6.182 166.513,6.99L166.513,6.89C166.513,6.578 166.638,6.278 166.859,6.057C167.08,5.836 167.38,5.711 167.692,5.711C168.056,5.711 168.457,5.711 168.821,5.711C169.134,5.711 169.434,5.836 169.655,6.057C169.876,6.278 170,6.578 170,6.89C170,10.185 170,19.251 170,19.251ZM133.912,2.584C133.912,1.95 133.398,1.436 132.764,1.436C132.387,1.436 131.967,1.436 131.589,1.436C130.955,1.436 130.441,1.95 130.441,2.584C130.441,6.08 130.441,16.57 130.441,20.066C130.441,20.7 130.955,21.213 131.589,21.213C131.967,21.213 132.387,21.213 132.764,21.213C133.398,21.213 133.912,20.7 133.912,20.066C133.912,16.57 133.912,6.08 133.912,2.584ZM144.431,5.711C148.709,5.711 152.182,9.185 152.182,13.462C152.182,17.74 148.709,21.213 144.431,21.213C140.153,21.213 136.68,17.74 136.68,13.462C136.68,9.185 140.153,5.711 144.431,5.711ZM112.197,13.463L112.197,13.463C112.197,17.741 115.67,21.213 119.948,21.213C124.226,21.213 127.699,17.74 127.699,13.462C127.699,9.185 124.226,5.711 119.948,5.711C118.373,5.711 116.908,6.182 115.684,6.99L115.684,2.615C115.684,1.964 115.157,1.436 114.505,1.436C114.141,1.436 113.74,1.436 113.376,1.436C112.725,1.436 112.197,1.964 112.197,2.615C112.197,5.388 112.197,13.463 112.197,13.463ZM144.431,9.197C146.785,9.197 148.696,11.108 148.696,13.461C148.696,15.815 146.785,17.726 144.431,17.726C142.077,17.726 140.166,15.815 140.166,13.461C140.166,11.108 142.077,9.197 144.431,9.197ZM115.684,13.357C115.74,11.051 117.629,9.197 119.948,9.197C122.302,9.197 124.213,11.108 124.213,13.461C124.213,15.815 122.302,17.726 119.948,17.726C117.595,17.726 115.684,15.816 115.683,13.463L115.684,13.463L115.684,13.357ZM166.513,13.355C166.458,11.05 164.569,9.196 162.251,9.196C159.897,9.196 157.987,11.106 157.987,13.46C157.987,15.813 159.897,17.724 162.251,17.724C164.567,17.724 166.454,15.873 166.513,13.571L166.513,13.355Z" style="fill:rgb(31,105,236);"/>
</svg>
