<?xml version="1.0" encoding="UTF-8" standalone="no"?>
<!DOCTYPE svg PUBLIC "-//W3C//DTD SVG 1.1//EN" "http://www.w3.org/Graphics/SVG/1.1/DTD/svg11.dtd">
<svg width="100%" height="100%" viewBox="0 0 392 164" version="1.1" xmlns="http://www.w3.org/2000/svg" xmlns:xlink="http://www.w3.org/1999/xlink" xml:space="preserve" xmlns:serif="http://www.serif.com/" style="fill-rule:evenodd;clip-rule:evenodd;stroke-linejoin:round;stroke-miterlimit:2;">
    <g transform="matrix(0.886156,0,0,1.11824,-5848.75,-5428.9)">
        <path d="M7042.46,4854.81L6600.14,4854.81L6600.14,4967.04C6600.14,4977.61 6610.13,4986.51 6623.39,4987.74C6670.14,4992.16 6774.99,5001.58 6821.3,5001.58C6867.62,5001.58 6972.47,4992.16 7019.21,4987.73C7032.46,4986.51 7042.46,4977.61 7042.46,4967.04L7042.46,4854.81Z" style="fill:rgb(37,103,197);"/>
    </g>
    <path d="M303.14,94.674C298.888,94.674 295.4,93.53 292.675,91.244C289.95,88.957 288.587,85.891 288.587,82.045L288.587,57.567L296.054,57.567L296.054,81.473C296.054,83.379 296.626,84.886 297.771,85.995C298.916,87.103 300.705,87.658 303.14,87.658C305.574,87.658 307.364,87.103 308.508,85.995C309.653,84.886 310.225,83.379 310.225,81.473L310.225,57.567L317.747,57.567L317.747,82.045C317.747,85.891 316.384,88.957 313.659,91.244C310.934,93.53 307.427,94.674 303.14,94.674ZM200.563,94.674C194.822,94.674 190.08,92.855 186.337,89.217C182.595,85.579 180.723,81.092 180.723,75.757C180.723,70.386 182.595,65.891 186.337,62.27C190.08,58.65 194.822,56.839 200.563,56.839C204.015,56.839 207.203,57.61 210.128,59.152C213.053,60.694 215.334,62.781 216.969,65.415L210.483,69C209.538,67.372 208.194,66.099 206.449,65.181C204.705,64.263 202.743,63.803 200.563,63.803C196.857,63.803 193.868,64.912 191.597,67.13C189.326,69.347 188.191,72.223 188.191,75.757C188.191,79.256 189.326,82.114 191.597,84.332C193.868,86.549 196.857,87.658 200.563,87.658C202.743,87.658 204.714,87.199 206.477,86.281C208.239,85.362 209.574,84.107 210.483,82.513L216.969,86.099C215.334,88.732 213.063,90.819 210.156,92.361C207.249,93.903 204.051,94.674 200.563,94.674ZM44.071,57.567L50.622,57.567C54.147,57.567 57.145,58.745 59.615,61.101C62.086,63.457 63.322,66.298 63.322,69.624C63.322,71.876 62.649,73.964 61.305,75.887C59.961,77.809 58.18,79.256 55.964,80.226L64.412,93.946L56.291,93.946L48.606,81.317L42.883,81.317L42.883,93.946L35.361,93.946L35.361,57.567L42.897,57.567L42.897,64.271L42.883,64.271L42.883,75.029L50.622,75.029C52.039,75.029 53.257,74.501 54.274,73.444C55.291,72.387 55.8,71.114 55.8,69.624C55.8,68.134 55.291,66.87 54.274,65.83C53.257,64.791 52.039,64.271 50.622,64.271L47.402,64.271L44.071,57.567ZM79.4,87.086L95.479,87.086L95.479,93.946L71.879,93.946L71.879,57.567L95.207,57.567L95.207,64.427L79.4,64.427L79.4,72.171L93.844,72.171L93.844,78.927L79.4,78.927L79.4,87.086ZM264.496,87.086L280.575,87.086L280.575,93.946L256.975,93.946L256.975,57.567L280.302,57.567L280.302,64.427L264.496,64.427L264.496,72.171L278.94,72.171L278.94,78.927L264.496,78.927L264.496,87.086ZM239.425,57.567L239.425,64.427L239.424,64.427L239.424,93.946L231.903,93.946L231.903,64.427L221.656,64.427L221.656,57.567L239.425,57.567ZM336.261,57.567L342.819,57.567C346.343,57.567 349.341,58.745 351.812,61.101C354.283,63.457 355.518,66.298 355.518,69.624C355.518,71.876 354.846,73.964 353.501,75.887C352.157,77.809 350.377,79.256 348.16,80.226L356.608,93.946L348.487,93.946L340.802,81.317L335.079,81.317L335.079,93.946L327.557,93.946L327.557,57.567L335.087,57.567L335.087,64.271L335.079,64.271L335.079,75.029L342.819,75.029C344.236,75.029 345.453,74.501 346.47,73.444C347.488,72.387 347.997,71.114 347.997,69.624C347.997,68.134 347.488,66.87 346.47,65.83C345.453,64.791 344.236,64.271 342.819,64.271L339.592,64.271L336.261,57.567ZM112.522,57.567L118.97,57.567C124.203,57.567 128.572,59.317 132.079,62.816C135.585,66.315 137.338,70.629 137.338,75.757C137.338,80.884 135.585,85.198 132.079,88.697C128.572,92.197 124.203,93.946 118.97,93.946L103.818,93.946L103.818,57.567L111.348,57.567L111.348,64.427L111.34,64.427L111.34,87.086L118.97,87.086C122.277,87.086 124.966,86.038 127.037,83.942C129.108,81.846 130.144,79.117 130.144,75.757C130.144,72.396 129.108,69.667 127.037,67.571C124.966,65.475 122.277,64.427 118.97,64.427L115.93,64.427L112.522,57.567ZM168.896,93.946L166.607,87.398L151.4,87.398L149.111,93.946L140.99,93.946L154.343,57.567L163.664,57.567L177.072,93.946L168.896,93.946ZM153.798,80.694L164.263,80.694L159.031,65.83L153.798,80.694ZM240.599,57.567L249.726,57.567L249.726,64.427L244.007,64.427L240.599,57.567Z" style="fill:white;fill-rule:nonzero;"/>
</svg>
