<?xml version="1.0" encoding="UTF-8" standalone="no"?><!DOCTYPE svg PUBLIC "-//W3C//DTD SVG 1.1//EN" "http://www.w3.org/Graphics/SVG/1.1/DTD/svg11.dtd"><svg width="100%" height="100%" viewBox="0 0 2134 2134" version="1.1" xmlns="http://www.w3.org/2000/svg" xmlns:xlink="http://www.w3.org/1999/xlink" xml:space="preserve" xmlns:serif="http://www.serif.com/" style="fill-rule:evenodd;clip-rule:evenodd;stroke-linejoin:round;stroke-miterlimit:2;"><ellipse cx="1075.59" cy="1066.67" rx="1024.96" ry="1024.71" style="fill:#2567c5;"/><g><path d="M1066.92,0.508c-588.558,0 -1066.41,477.855 -1066.41,1066.41c0,588.558 477.855,1066.41 1066.41,1066.41c588.558,0 1066.41,-477.854 1066.41,-1066.41c0,-588.558 -477.854,-1066.41 -1066.41,-1066.41Zm-0,111.584c526.971,-0 954.829,427.858 954.829,954.829c-0,526.971 -427.858,954.829 -954.829,954.829c-526.971,-0 -954.829,-427.858 -954.829,-954.829c-0,-526.971 427.858,-954.829 954.829,-954.829Z" style="fill:#fff;"/></g><path d="M880.686,457.29l219.558,0c118.146,0 218.617,39.481 301.401,118.45c82.824,78.963 124.249,174.176 124.249,285.648c0,75.477 -22.564,145.463 -67.608,209.91c-45.041,64.414 -104.733,112.916 -179.008,145.423l283.142,459.832l-272.178,0l-257.572,-423.263l-191.807,0l0,423.263l-252.101,0l-0,-1219.27l252.57,0l-0,224.689l-0.469,0l0,360.566l259.381,0c47.49,0 88.312,-17.699 122.399,-53.127c34.08,-35.421 51.14,-78.087 51.14,-128.03c0,-49.936 -17.06,-92.295 -51.14,-127.157c-34.087,-34.816 -74.909,-52.252 -122.399,-52.252l-107.921,0l-111.637,-224.689l-0,0.002Z" style="fill:#fff;fill-rule:nonzero;"/></svg>