<?xml version="1.0" encoding="UTF-8" standalone="no"?>
<!DOCTYPE svg PUBLIC "-//W3C//DTD SVG 1.1//EN" "http://www.w3.org/Graphics/SVG/1.1/DTD/svg11.dtd">
<svg width="100%" height="100%" viewBox="0 0 469 90" version="1.1" xmlns="http://www.w3.org/2000/svg" xmlns:xlink="http://www.w3.org/1999/xlink" xml:space="preserve" xmlns:serif="http://www.serif.com/" style="fill-rule:evenodd;clip-rule:evenodd;stroke-linejoin:round;stroke-miterlimit:2;">
  <path d="M176.422,39.764c0,0.55 -0.255,1.07 -0.691,1.406c-0.436,0.336 -1.003,0.45 -1.535,0.31c0,0 -0.001,0 -0.001,-0.001c-0.714,-0.188 -1.57,-0.282 -2.566,-0.282c-1.729,0 -3.053,0.508 -3.974,1.523c-0.921,1.015 -1.382,2.715 -1.382,5.102l0,17.9l-2.142,0c-1.729,0 -3.105,-0.423 -4.13,-1.268c-1.024,-0.846 -1.536,-2.077 -1.536,-3.693l0,-14.32c0,-1.541 0.211,-3.054 0.634,-4.539c0.423,-1.484 1.095,-2.781 2.016,-3.89c0.921,-1.109 2.114,-2.011 3.58,-2.706c1.466,-0.695 3.223,-1.043 5.271,-1.043c1.184,0 2.19,0.155 3.017,0.465c0.826,0.31 1.489,0.705 1.987,1.184c0.498,0.479 0.864,1.024 1.099,1.635c0.235,0.611 0.353,1.207 0.353,1.79l0,0.427Z" style="fill:#343434;fill-rule:nonzero;"/>
  <path d="M148.729,30.975c-1.166,2.253 -3.839,3.271 -6.208,2.364c-1.486,-0.644 -2.752,-0.973 -3.753,-1.169c-1.442,-0.283 -2.567,-0.328 -4.013,-0.328c-7.251,0 -12.251,5.887 -12.251,13.138c0,7.251 5.001,13.237 12.251,13.138c5.772,-0.08 8.356,-3.614 9.46,-8.636l-8.3,0c-0.64,0 -1.16,-0.519 -1.16,-1.16c0,-0.001 0,-0.002 0,-0.003c0,-3.558 2.884,-6.442 6.442,-6.442c1.675,0 3.018,0 3.018,0l0,0c0,0 3.302,0 5.662,0c1.427,0 2.631,1.061 2.809,2.477c0.097,0.852 0.152,1.719 0.152,2.599c0,7.932 -5.634,18.769 -18.083,18.769c-11.448,0 -19.856,-9.294 -19.856,-20.742c0,-11.448 8.408,-20.743 19.856,-20.743c2.823,-0.003 5.41,0.248 7.967,0.891c1.717,0.433 3.365,1.232 5.008,2.264c1.213,0.75 1.643,2.308 0.988,3.574c0.012,0.007 0.011,0.008 0.011,0.009Z" style="fill:#343434;"/>
  <path d="M152.619,49.484c-0.192,1.416 -0.549,2.872 -1.095,4.3l-8.918,0c0.725,-1.184 1.232,-2.621 1.608,-4.3l8.405,0Z"/>
  <path d="M197.564,52.163l-2.763,0c-1.466,0 -2.687,0.085 -3.665,0.254c-0.977,0.169 -1.757,0.418 -2.339,0.747c-0.583,0.329 -0.987,0.742 -1.212,1.24c-0.226,0.498 -0.339,1.057 -0.339,1.677c0,1.241 0.461,2.195 1.382,2.862c0.92,0.667 2.245,1 3.974,1c3.308,0 4.962,-1.597 4.962,-4.792l0,-2.988Zm7.554,2.932c0,1.654 -0.286,3.166 -0.859,4.538c-0.574,1.372 -1.382,2.547 -2.425,3.524c-1.043,0.977 -2.283,1.734 -3.721,2.269c-1.437,0.536 -3.021,0.804 -4.75,0.804l-1.578,0c-1.842,0 -3.533,-0.249 -5.074,-0.747c-1.541,-0.498 -2.861,-1.18 -3.961,-2.044c-1.099,-0.865 -1.945,-1.903 -2.537,-3.115c-0.592,-1.212 -0.888,-2.532 -0.888,-3.961c0,-1.39 0.268,-2.678 0.804,-3.862c0.535,-1.184 1.409,-2.212 2.621,-3.086c1.212,-0.874 2.81,-1.56 4.792,-2.058c1.983,-0.498 4.403,-0.747 7.259,-0.747l2.706,0l0,-0.395c0,-2.199 -0.54,-3.702 -1.621,-4.51c-1.08,-0.808 -2.767,-1.212 -5.06,-1.212c-1.39,0 -2.635,0.117 -3.735,0.352c-1.099,0.235 -2.053,0.536 -2.861,0.902c-0.808,0.367 -1.489,0.761 -2.044,1.184c0,0 0,0.001 -0.001,0.001c-0.289,0.22 -0.678,0.257 -1.003,0.096c-0.326,-0.161 -0.532,-0.493 -0.532,-0.857c0,-0.335 0,-0.579 0,-0.579c0,-0.846 0.202,-1.719 0.606,-2.621c0.404,-0.903 1.057,-1.729 1.959,-2.481c0.902,-0.752 2.077,-1.358 3.524,-1.818c1.447,-0.461 3.185,-0.691 5.215,-0.691c1.748,0 3.411,0.221 4.989,0.662c1.579,0.442 2.974,1.199 4.187,2.27c1.212,1.071 2.18,2.504 2.903,4.299c0.724,1.794 1.085,4.035 1.085,6.723l0,7.16Z" style="fill:#343434;fill-rule:nonzero;"/>
  <path d="M233.026,51.233c0,-3.702 -0.606,-6.38 -1.818,-8.034c-1.212,-1.654 -3.068,-2.481 -5.568,-2.481c-2.161,0 -3.805,0.837 -4.933,2.509c-1.127,1.673 -1.691,3.862 -1.691,6.568c0,3.12 0.7,5.525 2.1,7.217c1.4,1.691 3.256,2.537 5.567,2.537c1.88,0 3.407,-0.761 4.581,-2.284c1.175,-1.522 1.762,-3.533 1.762,-6.032Zm7.977,-2.03c0,2.5 -0.31,4.802 -0.93,6.907c-0.62,2.104 -1.517,3.923 -2.692,5.454c-1.174,1.532 -2.636,2.725 -4.383,3.58c-1.748,0.855 -3.759,1.283 -6.033,1.283c-1.729,0 -3.274,-0.437 -4.637,-1.311c-1.362,-0.874 -2.429,-1.978 -3.199,-3.312l0,11.366c0,1.305 -1.058,2.362 -2.363,2.362c-0.04,0 -0.062,0 -0.062,0c-0.695,0 -1.372,-0.122 -2.029,-0.366c-0.658,-0.245 -1.236,-0.602 -1.734,-1.072c-0.498,-0.469 -0.902,-1.028 -1.212,-1.677c-0.31,-0.648 -0.465,-1.395 -0.465,-2.241l0,-18.83c0,-2.575 0.3,-4.943 0.902,-7.104c0.601,-2.161 1.536,-4.008 2.805,-5.539c1.268,-1.532 2.884,-2.721 4.848,-3.566c1.964,-0.846 4.308,-1.269 7.033,-1.269c2.086,0 3.994,0.432 5.723,1.297c1.729,0.864 3.218,2.006 4.468,3.425c1.25,1.419 2.222,3.054 2.917,4.905c0.696,1.851 1.043,3.754 1.043,5.708Z" style="fill:#343434;fill-rule:nonzero;"/>
  <path d="M272.209,65.722c-1.616,0 -2.894,-0.441 -3.834,-1.325c-0.939,-0.883 -1.409,-2.17 -1.409,-3.862l0,-12.713c0,-1.259 -0.165,-2.344 -0.493,-3.256c-0.329,-0.911 -0.776,-1.644 -1.339,-2.199c-0.564,-0.554 -1.217,-0.967 -1.96,-1.24c-0.742,-0.272 -1.536,-0.409 -2.382,-0.409c-0.62,0 -1.259,0.127 -1.916,0.381c-0.658,0.254 -1.264,0.667 -1.819,1.24c-0.554,0.573 -1.005,1.325 -1.353,2.255c-0.347,0.931 -0.521,2.082 -0.521,3.454l0,15.312c0,1.305 -1.058,2.362 -2.362,2.362c-0.11,0 -0.175,0 -0.175,0c-1.861,0 -3.214,-0.46 -4.06,-1.381c-0.845,-0.921 -1.268,-2.189 -1.268,-3.806l0,-34.03c0,-1.304 1.057,-2.362 2.362,-2.362c0.04,0 0.062,0 0.062,0c1.861,0 3.242,0.465 4.144,1.395c0.902,0.931 1.353,2.129 1.353,3.594l0,8.88c0.263,-0.47 0.634,-0.944 1.114,-1.423c0.479,-0.48 1.01,-0.921 1.592,-1.325c0.583,-0.404 1.222,-0.738 1.917,-1.001c0.696,-0.263 1.726,-0.393 2.143,-0.395c4.04,-0.015 7.174,1.161 9.401,3.482c2.227,2.321 3.34,5.699 3.34,10.134l0,15.876c0,1.305 -1.057,2.362 -2.362,2.362c-0.11,0 -0.175,0 -0.175,0Z" style="fill:#343434;fill-rule:nonzero;"/>
  <path d="M297.157,61.325c0,1.691 -0.357,2.894 -1.071,3.608c-0.715,0.714 -1.899,1.071 -3.552,1.071c-3.007,0 -5.309,-0.827 -6.907,-2.481c-1.597,-1.653 -2.396,-4.059 -2.396,-7.216l0,-18.859c0,-0.583 0.232,-1.142 0.644,-1.555c0.412,-0.412 0.971,-0.643 1.554,-0.643c0.001,0 0.001,0 0.001,0c1.729,0 3.082,0.469 4.059,1.409c0.977,0.94 1.466,2.387 1.466,4.341l0,14.574c0,1.579 0.357,2.655 1.071,3.228c0.714,0.573 1.936,0.86 3.665,0.86l0.002,0c0.388,0 0.76,0.154 1.035,0.428c0.274,0.275 0.429,0.647 0.429,1.036c0,0.121 0,0.199 0,0.199Zm-5.554,-33.546c0,1.241 -0.451,2.312 -1.353,3.214c-0.902,0.902 -1.973,1.353 -3.213,1.353c-1.222,0 -2.279,-0.451 -3.172,-1.353c-0.892,-0.902 -1.339,-1.973 -1.339,-3.214c0,-1.221 0.447,-2.274 1.339,-3.157c0.893,-0.883 1.95,-1.325 3.172,-1.325c1.24,0 2.311,0.442 3.213,1.325c0.902,0.883 1.353,1.936 1.353,3.157Z" style="fill:#343434;fill-rule:nonzero;"/>
  <path d="M323.824,55.912c0,3.308 -1.118,5.887 -3.355,7.738c-2.236,1.851 -5.45,2.777 -9.64,2.777c-1.429,0 -2.749,-0.174 -3.961,-0.522c-1.212,-0.347 -2.269,-0.803 -3.171,-1.367c-0.902,-0.563 -1.602,-1.212 -2.1,-1.945c-0.498,-0.733 -0.747,-1.503 -0.747,-2.311c0,0 0.002,-0.571 0.005,-1.251c0.001,-0.455 0.242,-0.876 0.633,-1.108c0.392,-0.232 0.877,-0.242 1.277,-0.025c0,0.001 0.001,0.001 0.001,0.002c0.677,0.366 1.438,0.686 2.284,0.958c0.845,0.273 1.733,0.484 2.664,0.634c0.93,0.151 1.855,0.226 2.776,0.226c3.759,0 5.638,-1.137 5.638,-3.411c0,-0.451 -0.084,-0.841 -0.254,-1.17c-0.169,-0.329 -0.483,-0.629 -0.944,-0.902c-0.46,-0.272 -1.113,-0.512 -1.959,-0.719c-0.846,-0.206 -1.945,-0.413 -3.298,-0.62c-3.308,-0.451 -5.76,-1.344 -7.358,-2.678c-1.597,-1.334 -2.396,-3.195 -2.396,-5.581c0,-1.447 0.315,-2.829 0.945,-4.144c0.629,-1.316 1.522,-2.462 2.678,-3.439c1.155,-0.978 2.541,-1.753 4.158,-2.326c1.616,-0.573 3.429,-0.86 5.44,-0.86c1.767,0 3.275,0.202 4.525,0.606c1.249,0.404 2.278,0.931 3.086,1.579c0.808,0.648 1.396,1.367 1.762,2.156c0.367,0.79 0.55,1.551 0.55,2.284l0,0.001c0,0.565 -0.288,1.091 -0.764,1.396c-0.476,0.306 -1.075,0.348 -1.588,0.112c-0.498,-0.23 -1.039,-0.433 -1.595,-0.621c-1.635,-0.555 -3.382,-0.832 -5.243,-0.832c-2.368,0 -3.998,0.329 -4.891,0.987c-0.892,0.658 -1.339,1.484 -1.339,2.48c0,0.376 0.08,0.71 0.24,1.001c0.16,0.291 0.46,0.555 0.902,0.789c0.441,0.235 1.066,0.447 1.874,0.635c0.809,0.188 1.88,0.394 3.214,0.62c3.289,0.545 5.769,1.531 7.442,2.96c1.673,1.428 2.509,3.392 2.509,5.891Z" style="fill:#343434;fill-rule:nonzero;"/>
  <path d="M330.11,35.813c0,-0.77 0.042,-1.433 0.127,-1.987c0.085,-0.554 0.211,-1.062 0.381,-1.522c0.169,-0.461 0.456,-1.011 0.731,-1.426c0.353,-0.532 0.547,-0.812 0.954,-1.265c0.551,-0.614 1.171,-1.145 1.824,-1.509c0.65,-0.364 1.537,-0.607 2.747,-0.607l0.001,0c0.514,0 0.931,0.417 0.931,0.931c0,1.915 0,6.117 0,6.117l8.434,0c0.627,0 1.227,0.249 1.67,0.692c0.443,0.443 0.692,1.044 0.692,1.67c0,0.471 0,0.823 0,0.823c0,0.808 -0.376,1.626 -1.127,2.453c-0.752,0.827 -1.917,1.24 -3.496,1.24l-6.173,0l0,12.178c0,2.029 0.423,3.472 1.268,4.327c0.846,0.855 2.058,1.282 3.637,1.282c1.253,0 2.417,-0.089 3.417,-0.268c0.59,-0.139 1.212,-0.001 1.687,0.375c0.476,0.376 0.753,0.949 0.753,1.556c0.034,0 0.034,0.001 0.034,0.001c0,1.616 -0.568,2.884 -1.705,3.805c-1.137,0.921 -2.843,1.382 -5.116,1.382c-3.966,0 -6.902,-1.011 -8.81,-3.031c-1.907,-2.02 -2.861,-4.853 -2.861,-8.499l0,-18.718Z" style="fill:#343434;fill-rule:nonzero;"/>
  <path d="M372.169,45.003c0,-1.579 -0.531,-2.753 -1.593,-3.524c-1.062,-0.77 -2.495,-1.155 -4.299,-1.155c-0.921,0 -1.776,0.183 -2.565,0.549c-0.789,0.367 -1.475,0.846 -2.058,1.438c-0.583,0.592 -1.034,1.292 -1.353,2.1c-0.32,0.808 -0.498,1.654 -0.536,2.537l-0.056,1.043l3.439,0c1.861,0 3.369,-0.056 4.524,-0.169c1.156,-0.113 2.068,-0.287 2.735,-0.522c0.667,-0.234 1.127,-0.545 1.381,-0.93c0.254,-0.385 0.381,-0.841 0.381,-1.367Zm7.273,0.93c0,2.838 -1.156,4.807 -3.468,5.906c-2.311,1.099 -6.023,1.649 -11.135,1.649l-5.074,0c0.301,1.955 1.25,3.51 2.847,4.665c1.598,1.156 3.552,1.734 5.864,1.734c1.616,0 3.298,-0.202 5.046,-0.606c0.978,-0.226 1.965,-0.569 2.862,-1.027c0.396,-0.214 0.875,-0.203 1.26,0.027c0.386,0.231 0.622,0.647 0.622,1.096c0.02,0.002 0.02,0.003 0.02,0.003c0,0.996 -0.183,1.917 -0.55,2.762c-0.366,0.846 -0.991,1.588 -1.875,2.227c-0.883,0.639 -2.048,1.142 -3.495,1.508c-1.447,0.367 -3.223,0.55 -5.328,0.55c-1.935,0 -3.824,-0.366 -5.666,-1.099c-1.842,-0.733 -3.477,-1.786 -4.905,-3.158c-1.428,-1.372 -2.574,-3.016 -3.439,-4.933c-0.864,-1.917 -1.297,-4.068 -1.297,-6.455c0,-2.594 0.376,-4.938 1.128,-7.033c0.752,-2.096 1.799,-3.876 3.143,-5.342c1.344,-1.466 2.951,-2.589 4.82,-3.369c1.87,-0.78 3.923,-1.17 6.16,-1.17c1.616,0 3.171,0.277 4.665,0.832c1.494,0.554 2.819,1.348 3.975,2.382c1.156,1.033 2.081,2.302 2.777,3.805c0.695,1.504 1.043,3.186 1.043,5.046Z" style="fill:#343434;fill-rule:nonzero;"/>
  <path d="M391.138,63.176c0,0.462 -0.091,0.891 -0.272,1.285c-0.182,0.393 -0.419,0.737 -0.713,1.031c-0.294,0.294 -0.638,0.532 -1.032,0.713c-0.394,0.181 -0.822,0.272 -1.285,0.272c-0.463,0 -0.894,-0.091 -1.294,-0.272c-0.4,-0.181 -0.748,-0.419 -1.041,-0.713c-0.294,-0.294 -0.529,-0.638 -0.704,-1.031c-0.175,-0.394 -0.263,-0.823 -0.263,-1.285c0,-0.463 0.088,-0.892 0.263,-1.286c0.175,-0.393 0.41,-0.741 0.704,-1.041c0.293,-0.3 0.641,-0.537 1.041,-0.713c0.4,-0.175 0.831,-0.262 1.294,-0.262c0.463,0 0.891,0.087 1.285,0.262c0.394,0.176 0.738,0.413 1.032,0.713c0.294,0.3 0.531,0.648 0.713,1.041c0.181,0.394 0.272,0.823 0.272,1.286Z" style="fill:#343434;fill-rule:nonzero;"/>
  <path d="M411.529,49.988c-0.013,0.424 -0.241,0.812 -0.604,1.031c-0.364,0.218 -0.814,0.237 -1.194,0.05c-0.115,-0.061 -0.236,-0.117 -0.359,-0.172c-0.951,-0.419 -2.164,-0.628 -3.639,-0.628c-0.751,0 -1.47,0.141 -2.158,0.422c-0.688,0.281 -1.288,0.672 -1.801,1.173c-0.512,0.5 -0.922,1.081 -1.228,1.744c-0.307,0.663 -0.46,1.382 -0.46,2.158c0,1.888 0.51,3.417 1.529,4.586c1.019,1.17 2.417,1.754 4.193,1.754c1.488,0 2.679,-0.2 3.573,-0.6c0.083,-0.037 0.165,-0.075 0.246,-0.112c0.398,-0.186 0.862,-0.156 1.232,0.08c0.37,0.235 0.594,0.643 0.594,1.082c0.001,0 0.001,0 0.001,0c0,1.251 -0.556,2.28 -1.669,3.086c-1.113,0.807 -2.608,1.21 -4.484,1.21c-1.438,0 -2.795,-0.259 -4.071,-0.778c-1.275,-0.519 -2.395,-1.241 -3.358,-2.167c-0.963,-0.925 -1.732,-2.017 -2.307,-3.273c-0.575,-1.257 -0.863,-2.624 -0.863,-4.099c0,-1.489 0.25,-2.899 0.75,-4.231c0.501,-1.332 1.229,-2.498 2.186,-3.498c0.957,-1.001 2.129,-1.795 3.517,-2.383c1.389,-0.587 2.964,-0.881 4.728,-0.881c0.813,0 1.566,0.115 2.26,0.347c0.694,0.231 1.291,0.55 1.792,0.956c0.5,0.407 0.891,0.879 1.172,1.417c0.282,0.538 0.422,1.113 0.422,1.726c0,0 0,0 0,0Z" style="fill:#343434;fill-rule:nonzero;"/>
  <path d="M428.994,56.497c0,-2.076 -0.397,-3.699 -1.191,-4.868c-0.794,-1.169 -2.035,-1.754 -3.724,-1.754c-1.488,0 -2.601,0.55 -3.339,1.651c-0.738,1.1 -1.107,2.514 -1.107,4.24c0,2.063 0.391,3.673 1.173,4.83c0.781,1.157 2.029,1.735 3.742,1.735c1.514,0 2.633,-0.55 3.358,-1.65c0.726,-1.101 1.088,-2.496 1.088,-4.184Zm-14.707,0c0,-1.563 0.219,-3.023 0.657,-4.38c0.437,-1.357 1.091,-2.542 1.96,-3.555c0.869,-1.013 1.945,-1.814 3.226,-2.401c1.282,-0.588 2.755,-0.882 4.418,-0.882c1.564,0 2.952,0.288 4.165,0.863c1.213,0.575 2.235,1.347 3.067,2.317c0.832,0.969 1.466,2.082 1.904,3.339c0.438,1.257 0.657,2.579 0.657,3.968c0,1.563 -0.225,3.023 -0.676,4.38c-0.45,1.357 -1.103,2.539 -1.96,3.545c-0.857,1.007 -1.926,1.801 -3.208,2.383c-1.282,0.581 -2.754,0.872 -4.418,0.872c-1.563,0 -2.951,-0.291 -4.164,-0.872c-1.213,-0.582 -2.236,-1.351 -3.067,-2.308c-0.832,-0.956 -1.467,-2.063 -1.904,-3.32c-0.438,-1.257 -0.657,-2.573 -0.657,-3.949Z" style="fill:#343434;fill-rule:nonzero;"/>
  <path d="M467.226,66.477c-1.401,0 -2.404,-0.319 -3.011,-0.957c-0.606,-0.637 -0.91,-1.575 -0.91,-2.813l0,-7.992c0,-1.713 -0.344,-2.955 -1.031,-3.724c-0.688,-0.769 -1.607,-1.153 -2.758,-1.153c-1.051,0 -1.898,0.359 -2.542,1.078c-0.644,0.719 -0.966,1.798 -0.966,3.236l0,10.937c0,0.368 -0.146,0.721 -0.407,0.982c-0.26,0.26 -0.613,0.406 -0.981,0.406c0,0 0,0 0,0c-1.151,0 -2.064,-0.319 -2.739,-0.957c-0.675,-0.637 -1.013,-1.575 -1.013,-2.813l0,-7.992c0,-1.713 -0.353,-2.955 -1.06,-3.724c-0.707,-0.769 -1.635,-1.153 -2.786,-1.153c-1,0 -1.832,0.378 -2.495,1.134c-0.663,0.757 -0.994,1.855 -0.994,3.293l0,10.824c0,0.767 -0.622,1.388 -1.388,1.388c0,0 0,0 0,0c-1.076,0 -1.967,-0.325 -2.674,-0.975c-0.706,-0.651 -1.059,-1.582 -1.059,-2.795l0,-8.03c0,-1.4 0.187,-2.679 0.562,-3.836c0.376,-1.157 0.945,-2.151 1.707,-2.983c0.763,-0.831 1.723,-1.469 2.88,-1.913c1.157,-0.444 2.517,-0.666 4.08,-0.666c1.351,0 2.551,0.288 3.602,0.863c1.051,0.575 1.951,1.363 2.701,2.364c0.588,-0.976 1.414,-1.758 2.477,-2.345c1.063,-0.588 2.219,-0.882 3.47,-0.882c1.176,0 2.289,0.178 3.339,0.535c1.051,0.356 1.967,0.9 2.749,1.632c0.781,0.731 1.397,1.647 1.847,2.748c0.451,1.101 0.676,2.376 0.676,3.827l0,11.182c0,0.704 -0.571,1.274 -1.274,1.274c-0.001,0 -0.002,0 -0.002,0Z" style="fill:#343434;fill-rule:nonzero;"/>
  <circle cx="44.728" cy="44.772" r="44.728" style="fill:#ff6944;"/>
  <path d="M66.421,23.649c-1.981,3.828 -6.459,5.637 -10.542,4.258c-1.634,-0.658 -3.057,-1.016 -4.225,-1.245c-2.039,-0.399 -3.629,-0.463 -5.673,-0.462c-10.25,0 -17.319,8.322 -17.319,18.572c0,10.251 7.07,18.714 17.319,18.573c8.16,-0.112 11.813,-5.109 13.373,-12.208l-12.271,0c-0.292,0 -0.572,-0.116 -0.779,-0.323c-0.207,-0.207 -0.323,-0.487 -0.323,-0.779c0,-0.001 0,-0.002 0,-0.003c0,-2.558 1.016,-5.012 2.825,-6.821c1.809,-1.809 4.263,-2.825 6.821,-2.825l3.727,0l0,0c0,0 5.709,0 9.012,0c1.38,0 2.559,0.994 2.792,2.353c0.251,1.571 0.386,3.181 0.386,4.823c0,11.214 -7.964,26.534 -25.563,26.534c-16.184,0 -28.07,-13.14 -28.07,-29.324c0,-16.184 11.886,-29.323 28.07,-29.323c3.991,-0.005 7.647,0.349 11.263,1.259c2.905,0.732 5.671,2.207 8.454,4.101c0.923,0.628 1.232,1.846 0.719,2.837c0.004,0.002 0.004,0.003 0.004,0.003Z" style="fill:#fff;"/>
  <path d="M71.268,51.14c-0.278,2.001 -0.788,4.061 -1.543,6.078l-12.645,0c1.045,-1.723 1.754,-3.748 2.273,-6.078l11.915,0Z" style="fill-opacity:0.18;"/>
</svg>