<?xml version="1.0" encoding="UTF-8" standalone="no"?>
<!DOCTYPE svg PUBLIC "-//W3C//DTD SVG 1.1//EN" "http://www.w3.org/Graphics/SVG/1.1/DTD/svg11.dtd">
<svg width="100%" height="100%" viewBox="0 0 56 56" version="1.1" xmlns="http://www.w3.org/2000/svg" xmlns:xlink="http://www.w3.org/1999/xlink" xml:space="preserve" xmlns:serif="http://www.serif.com/" style="fill-rule:evenodd;clip-rule:evenodd;stroke-linejoin:round;stroke-miterlimit:2;">
    <g transform="matrix(0.614677,0,0,0.614677,-3261.93,-3671.09)">
        <path d="M5314.38,6009.46L5314.37,6009.46L5314.37,6040.45C5314.37,6046.54 5318.5,6051.85 5324.4,6053.34C5332.89,6055.63 5344.81,6058.52 5352.3,6058.52C5359.78,6058.52 5371.7,6055.63 5380.18,6053.28C5386.05,6051.8 5390.16,6046.51 5390.16,6040.45C5390.19,6036.24 5390.2,6031.2 5390.21,6026.42L5390.23,6026.42L5390.23,5995.42C5390.23,5989.34 5386.09,5984.03 5380.19,5982.54C5371.7,5980.24 5359.78,5977.36 5352.3,5977.36C5344.81,5977.36 5332.89,5980.24 5324.42,5982.6C5318.54,5984.08 5314.43,5989.37 5314.43,5995.42C5314.41,5999.63 5314.39,6004.68 5314.38,6009.46Z" style="fill:rgb(59,66,163);"/>
    </g>
    <path d="M4.685,25.704L4.685,25.704C3.074,25.704 1.768,24.398 1.768,22.788L1.768,33.212L4.685,36.129C4.685,36.129 1.768,33.212 1.768,33.212L1.768,41.84C1.768,46.914 5.214,51.34 10.132,52.585C15.561,54.053 23.202,55.863 28,55.863C32.806,55.863 40.463,54.048 45.908,52.535C50.774,51.289 54.194,46.886 54.194,41.84C54.207,39.335 54.215,36.332 54.221,33.461C54.229,33.379 54.232,33.296 54.232,33.212L54.232,14.16C54.232,9.086 50.786,4.66 45.868,3.415C40.439,1.947 32.798,0.137 28,0.137C23.194,0.137 15.537,1.952 10.092,3.465C5.226,4.711 1.806,9.114 1.806,14.16C1.793,16.736 1.784,19.839 1.779,22.782C1.777,23.557 2.084,24.3 2.631,24.848C3.176,25.394 3.914,25.701 4.685,25.704ZM51.297,36.129L51.305,33.212L51.315,33.212L51.315,14.16C51.315,10.419 48.774,7.156 45.147,6.241C39.926,4.83 32.601,3.054 28,3.054C23.399,3.054 16.074,4.83 10.863,6.278C7.253,7.19 4.723,10.437 4.723,14.16C4.71,16.748 4.701,19.847 4.695,22.788L4.685,22.788L4.685,41.84C4.685,45.581 7.226,48.844 10.853,49.759C16.074,51.17 23.399,52.946 28,52.946C32.601,52.946 39.926,51.17 45.137,49.722C48.747,48.81 51.277,45.563 51.277,41.84C51.286,40.099 51.293,38.128 51.297,36.129L51.305,36.129L51.297,36.129ZM31.079,13.24L31.079,18.881L31.07,18.881L31.07,43.154L24.885,43.154L24.885,18.881L16.46,18.881L16.46,13.24L31.079,13.24ZM32.045,13.24L39.54,13.24L39.54,18.881L34.847,18.881L32.045,13.24Z" style="fill:white;"/>
</svg>
